<?xml version="1.0" encoding="UTF-8"?>
<svg xmlns="http://www.w3.org/2000/svg" xmlns:xlink="http://www.w3.org/1999/xlink" width="48px" height="48px" viewBox="0 0 48 48" version="1.1">
<g id="surface1">
<path style=" stroke:none;fill-rule:nonzero;fill:rgb(0.784314%,0.784314%,0.784314%);fill-opacity:1;" d="M 31.941406 48.253906 C 21.292969 48.253906 10.691406 48.253906 0.0859375 48.253906 C 0.0859375 32.253906 0.0859375 16.253906 0.0859375 0.253906 C 16.085938 0.253906 32.085938 0.253906 48.085938 0.253906 C 48.085938 16.253906 48.085938 32.253906 48.085938 48.253906 C 42.71875 48.253906 37.351562 48.253906 31.941406 48.253906 M 20.671875 15.167969 C 20.621094 14.992188 20.570312 14.816406 20.433594 14.609375 C 19.929688 14.632812 19.421875 14.636719 18.917969 14.703125 C 18.832031 14.714844 18.746094 14.996094 18.621094 15.15625 C 18.621094 15.15625 18.578125 15.175781 18.519531 15.296875 C 18.511719 19.617188 18.507812 23.9375 18.507812 28.261719 C 18.507812 28.429688 18.558594 28.601562 18.582031 28.964844 C 18.660156 29.421875 18.738281 29.875 18.847656 30.492188 C 18.84375 30.605469 18.835938 30.722656 18.792969 30.894531 C 18.832031 30.957031 18.875 31.023438 18.949219 31.230469 C 19.210938 32.675781 19.570312 33.886719 20.101562 34.457031 C 20.890625 35.296875 21.710938 35.429688 22.542969 35.136719 C 23.46875 34.8125 24.28125 33.902344 24.621094 31.167969 C 24.785156 29.855469 24.851562 28.390625 24.863281 26.988281 C 24.894531 23.207031 24.875 19.421875 24.875 15.640625 C 24.875 15.324219 24.859375 15.003906 24.851562 14.644531 C 24.222656 14.644531 23.628906 14.644531 22.96875 14.6875 C 22.941406 15.132812 22.894531 15.578125 22.894531 16.023438 C 22.886719 19.421875 22.859375 22.824219 22.902344 26.222656 C 22.929688 28.402344 22.773438 30.105469 21.921875 30.90625 C 21.800781 30.894531 21.679688 30.882812 21.519531 30.730469 C 21.214844 29.996094 20.910156 29.261719 20.59375 28.324219 C 20.574219 27.957031 20.535156 27.589844 20.535156 27.222656 C 20.53125 23.296875 20.535156 19.367188 20.585938 15.484375 C 20.605469 15.421875 20.625 15.363281 20.671875 15.167969 M 10.367188 25.824219 C 10.496094 25.605469 10.628906 25.390625 10.765625 25 C 10.816406 24.949219 10.867188 24.894531 10.9375 24.964844 C 10.960938 24.820312 10.980469 24.679688 11.046875 24.464844 C 11.078125 24.453125 11.113281 24.4375 11.199219 24.5 C 11.21875 24.410156 11.234375 24.320312 11.28125 24.082031 C 11.738281 23.324219 12.191406 22.566406 12.714844 21.703125 C 12.714844 24.753906 12.714844 27.589844 12.714844 30.257812 C 13.539062 31.683594 14.308594 33.007812 15.136719 34.367188 C 15.179688 34.230469 15.226562 34.089844 15.324219 33.78125 C 15.335938 33.617188 15.355469 33.453125 15.355469 33.289062 C 15.359375 27.019531 15.359375 20.746094 15.355469 14.476562 C 15.355469 14.164062 15.300781 13.851562 15.261719 13.371094 C 15.199219 13.324219 15.132812 13.28125 15.09375 13.222656 C 15.09375 13.222656 15.066406 13.246094 15.074219 13.054688 C 14.964844 12.914062 14.855469 12.777344 14.746094 12.671875 C 14.746094 12.671875 14.730469 12.675781 14.734375 12.496094 C 14.03125 11.289062 13.332031 10.078125 12.625 8.886719 C 12.585938 8.816406 12.511719 8.902344 12.410156 8.820312 C 11.253906 6.898438 10.101562 4.976562 8.90625 2.984375 C 8.90625 5.820312 8.90625 8.460938 8.910156 11.285156 C 9.4375 12.117188 9.96875 12.945312 10.542969 13.894531 C 10.730469 14.203125 10.929688 14.46875 11.105469 14.832031 C 11.210938 15.054688 11.28125 15.429688 11.304688 15.738281 C 11.175781 15.96875 11.042969 16.199219 10.867188 16.476562 C 10.828125 16.566406 10.789062 16.65625 10.6875 16.695312 C 10.066406 17.65625 9.441406 18.609375 8.820312 19.59375 C 8.765625 19.679688 8.753906 19.992188 8.664062 20.253906 C 8.445312 20.574219 8.265625 20.695312 8.023438 20.203125 C 7.601562 19.359375 7.132812 18.722656 6.6875 17.984375 C 6.21875 17.210938 5.753906 16.417969 5.289062 15.628906 C 5.328125 15.441406 5.335938 15.339844 5.355469 15.304688 C 6.113281 14.054688 6.871094 12.828125 7.621094 11.558594 C 7.699219 11.421875 7.785156 11.070312 7.785156 10.8125 C 7.792969 8.796875 7.78125 6.777344 7.777344 4.757812 C 7.773438 4.210938 7.777344 3.660156 7.777344 2.925781 C 7.398438 3.609375 7.109375 4.183594 6.808594 4.683594 C 5.210938 7.300781 3.609375 9.890625 2.011719 12.515625 C 1.691406 13.039062 1.507812 13.722656 1.511719 14.976562 C 1.542969 20.828125 1.523438 26.679688 1.527344 32.53125 C 1.53125 33.113281 1.574219 33.691406 1.601562 34.300781 C 2.328125 33.082031 2.992188 31.894531 3.679688 30.84375 C 3.929688 30.460938 3.988281 30.042969 3.980469 29.285156 C 3.960938 27.179688 3.972656 25.074219 3.976562 22.972656 C 3.976562 22.597656 4.003906 22.222656 4.027344 21.738281 C 4.980469 23.308594 5.855469 24.785156 6.742188 26.195312 C 7.042969 26.667969 7.183594 27.210938 7.167969 28.257812 C 7.132812 30.273438 7.15625 32.296875 7.15625 34.320312 C 7.15625 35.261719 7.15625 36.207031 7.15625 37.328125 C 6.984375 37.113281 6.894531 37.03125 6.808594 36.894531 C 6.171875 35.859375 5.511719 34.921875 4.914062 33.730469 C 4.5625 33.039062 4.335938 33.425781 4.058594 33.867188 C 3.566406 34.648438 3.074219 35.421875 2.585938 36.167969 C 2.585938 36.167969 2.597656 36.203125 2.597656 36.203125 C 2.597656 36.203125 2.582031 36.144531 2.621094 36.292969 C 2.453125 36.566406 2.289062 36.839844 2.082031 37.175781 C 3.078125 38.832031 4.03125 40.402344 4.976562 41.988281 C 6.042969 43.769531 7.101562 45.582031 8.171875 47.320312 C 8.285156 47.5 8.503906 47.382812 8.628906 47.183594 C 9.550781 45.707031 10.464844 44.179688 11.378906 42.652344 C 11.867188 41.835938 12.347656 40.972656 12.839844 40.15625 C 13.390625 39.230469 13.953125 38.335938 14.53125 37.390625 C 14.460938 37.171875 14.390625 36.847656 14.289062 36.667969 C 13.632812 35.507812 12.976562 34.367188 12.308594 33.269531 C 12.222656 33.128906 12.050781 33.1875 11.960938 33.339844 C 11.230469 34.554688 10.511719 35.816406 9.777344 36.804688 C 9.78125 33.476562 9.785156 30.148438 9.851562 26.78125 C 10.003906 26.453125 10.152344 26.121094 10.296875 25.785156 C 10.296875 25.785156 10.304688 25.785156 10.367188 25.824219 M 34.558594 31.710938 C 34.605469 31.925781 34.652344 32.136719 34.71875 32.53125 C 34.8125 33.042969 34.910156 33.554688 35.011719 34.246094 C 35.039062 34.335938 35.066406 34.449219 35.101562 34.515625 C 35.769531 35.808594 36.515625 35.332031 37.242188 35.222656 C 37.257812 35.222656 37.273438 34.824219 37.28125 34.378906 C 37.292969 33.371094 37.304688 32.367188 37.351562 31.261719 C 37.316406 31.214844 37.285156 31.167969 37.171875 31.148438 C 36.96875 31.042969 36.765625 30.933594 36.601562 30.789062 C 36.601562 30.789062 36.566406 30.71875 36.566406 30.71875 C 36.566406 30.71875 36.558594 30.839844 36.476562 30.808594 C 36.457031 30.761719 36.433594 30.714844 36.441406 30.464844 C 36.449219 30.246094 36.457031 30.027344 36.476562 29.574219 C 36.476562 28.039062 36.488281 26.503906 36.472656 24.96875 C 36.46875 24.632812 36.378906 24.300781 36.335938 23.777344 C 36.617188 23.710938 36.898438 23.644531 37.21875 23.71875 C 37.453125 23.117188 37.492188 21.222656 37.277344 20.007812 C 37.242188 19.832031 37.207031 19.65625 37.164062 19.273438 C 36.945312 19.097656 36.730469 18.925781 36.484375 18.730469 C 36.484375 17.742188 36.503906 16.742188 36.476562 15.75 C 36.46875 15.378906 36.359375 15.03125 36.214844 14.660156 C 35.757812 14.660156 35.296875 14.628906 34.835938 14.6875 C 34.726562 14.699219 34.535156 15.003906 34.53125 15.179688 C 34.527344 16.429688 34.5625 17.683594 34.523438 18.960938 C 34.476562 19.128906 34.433594 19.296875 34.316406 19.503906 C 34.199219 19.492188 34.082031 19.480469 33.894531 19.515625 C 33.730469 20.863281 33.644531 22.203125 34.011719 23.546875 C 34.179688 23.679688 34.347656 23.8125 34.484375 24.175781 C 34.480469 26.128906 34.472656 28.082031 34.476562 30.03125 C 34.480469 30.53125 34.527344 31.03125 34.558594 31.710938 M 33.402344 19.5 C 32.855469 19.410156 32.304688 19.316406 31.753906 19.25 C 31.722656 19.246094 31.683594 19.472656 31.648438 19.636719 C 31.648438 19.636719 31.640625 19.671875 31.632812 19.675781 C 31.632812 19.675781 31.632812 19.6875 31.550781 19.746094 C 31.535156 19.949219 31.507812 20.148438 31.507812 20.347656 C 31.507812 24.867188 31.503906 29.382812 31.511719 33.902344 C 31.511719 34.167969 31.5625 34.433594 31.605469 34.800781 C 31.625 34.867188 31.648438 34.890625 31.757812 34.917969 C 32.25 34.921875 32.742188 34.921875 33.265625 35.074219 C 33.308594 34.984375 33.347656 34.890625 33.386719 34.589844 C 33.390625 34.519531 33.394531 34.449219 33.425781 34.546875 C 33.441406 34.464844 33.457031 34.382812 33.46875 34.105469 C 33.445312 33.695312 33.398438 33.285156 33.402344 32.875 C 33.417969 30.828125 33.46875 28.777344 33.464844 26.730469 C 33.457031 24.582031 33.40625 22.433594 33.421875 20.398438 C 33.421875 20.167969 33.417969 19.933594 33.402344 19.5 M 28.984375 34.246094 C 29.039062 34.453125 29.09375 34.660156 29.226562 34.9375 C 29.722656 34.941406 30.214844 34.949219 30.742188 35.101562 C 30.792969 34.9375 30.847656 34.777344 30.949219 34.464844 C 30.960938 31.101562 30.96875 27.742188 30.972656 24.378906 C 30.972656 24.253906 30.917969 24.125 30.886719 23.800781 C 30.855469 23.503906 30.832031 23.1875 30.789062 22.90625 C 30.519531 21.195312 30.210938 19.609375 29.476562 19.015625 C 29.042969 19.042969 28.601562 18.949219 28.179688 19.15625 C 27.976562 19.253906 27.632812 19.375 27.621094 20.636719 C 27.554688 20.808594 27.488281 20.980469 27.417969 21.167969 C 27.347656 20.542969 27.285156 20.011719 27.214844 19.269531 C 27.105469 19.160156 27 18.964844 26.890625 18.953125 C 26.539062 18.917969 26.183594 18.949219 25.765625 19.007812 C 25.703125 19.578125 25.582031 20.144531 25.578125 20.714844 C 25.5625 24.980469 25.566406 29.242188 25.574219 33.507812 C 25.574219 33.875 25.644531 34.242188 25.6875 34.75 C 25.738281 34.804688 25.789062 34.859375 25.871094 35.109375 C 26.28125 35.175781 26.6875 35.269531 27.09375 35.28125 C 27.195312 35.285156 27.300781 35.015625 27.417969 34.636719 C 27.433594 31.574219 27.433594 28.507812 27.472656 25.449219 C 27.488281 24.324219 27.875 23.324219 28.246094 23.277344 C 28.664062 23.222656 28.96875 23.726562 29 25.132812 C 28.996094 28.113281 28.992188 31.09375 28.984375 34.246094 M 39.316406 35.761719 C 39.089844 35.753906 38.863281 35.71875 38.636719 35.75 C 38.417969 35.78125 38.226562 35.863281 38.28125 36.816406 C 38.34375 37.894531 38.199219 39.582031 38.390625 39.960938 C 38.667969 40.515625 39.167969 40.152344 39.570312 40.140625 C 40.210938 40.121094 40.699219 39.234375 40.980469 37.640625 C 41.269531 36.019531 41.472656 34.277344 41.769531 32.5 C 42.039062 30.324219 42.320312 28.160156 42.574219 25.96875 C 42.699219 24.886719 42.777344 23.757812 42.890625 22.457031 C 42.992188 21.550781 43.089844 20.644531 43.203125 19.511719 C 43.179688 19.417969 43.160156 19.238281 43.136719 19.238281 C 42.621094 19.207031 42.101562 19.179688 41.582031 19.195312 C 41.515625 19.199219 41.40625 19.414062 41.390625 19.589844 C 41.246094 21.136719 41.121094 22.695312 40.980469 24.390625 C 40.976562 24.488281 40.976562 24.582031 40.914062 24.738281 C 40.867188 25.175781 40.820312 25.617188 40.769531 26.25 C 40.726562 26.742188 40.683594 27.230469 40.582031 27.730469 C 40.511719 27.722656 40.441406 27.714844 40.367188 27.527344 C 40.332031 27.195312 40.292969 26.863281 40.308594 26.574219 C 40.242188 26.140625 40.175781 25.707031 40.09375 25.132812 C 40.09375 25.039062 40.089844 24.941406 40.121094 24.660156 C 39.921875 22.90625 39.722656 21.152344 39.527344 19.398438 C 39.027344 19.324219 38.527344 19.246094 38.027344 19.179688 C 37.941406 19.167969 37.851562 19.15625 37.773438 19.246094 C 37.738281 19.289062 37.730469 19.554688 37.714844 19.867188 C 37.71875 19.960938 37.726562 20.054688 37.726562 20.328125 C 37.789062 20.734375 37.855469 21.144531 37.957031 21.714844 C 38.0625 22.527344 38.167969 23.34375 38.242188 24.308594 C 38.285156 24.554688 38.328125 24.800781 38.40625 25.179688 C 38.421875 25.339844 38.433594 25.503906 38.421875 25.855469 C 38.519531 26.675781 38.617188 27.492188 38.710938 28.3125 C 38.980469 30.707031 39.488281 32.925781 39.316406 35.761719 M 45.25 19.453125 C 44.210938 20.289062 44.050781 22.910156 44.296875 25.113281 C 44.503906 26.960938 45.460938 27.972656 46.09375 27.1875 C 46.785156 26.335938 47.207031 23.609375 46.90625 21.800781 C 46.8125 21.25 46.625 20.828125 46.484375 20.339844 C 46.316406 19.753906 45.597656 19.21875 45.25 19.453125 M 31.839844 13.429688 C 31.746094 13.496094 31.574219 13.570312 31.574219 13.621094 C 31.59375 14.902344 31.625 16.179688 31.671875 17.453125 C 31.675781 17.550781 31.8125 17.664062 31.890625 17.667969 C 32.25 17.691406 32.613281 17.726562 32.972656 17.664062 C 33.285156 17.609375 33.519531 17.257812 33.476562 16.128906 C 33.441406 15.246094 33.445312 14.355469 33.429688 13.441406 C 32.902344 13.441406 32.410156 13.441406 31.839844 13.429688 Z M 31.839844 13.429688 "/>
<path style=" stroke:none;fill-rule:nonzero;fill:rgb(97.647059%,97.647059%,97.647059%);fill-opacity:1;" d="M 11.144531 24.425781 C 11.113281 24.4375 11.078125 24.453125 10.992188 24.496094 C 10.929688 24.632812 10.925781 24.738281 10.917969 24.84375 C 10.867188 24.894531 10.816406 24.949219 10.738281 25.019531 C 10.574219 25.285156 10.441406 25.535156 10.304688 25.785156 C 10.304688 25.785156 10.296875 25.785156 10.269531 25.769531 C 10.046875 26.082031 9.855469 26.410156 9.632812 26.792969 C 9.582031 30.148438 9.554688 33.445312 9.546875 36.742188 C 9.546875 36.847656 9.703125 36.957031 9.789062 37.0625 C 10.511719 35.816406 11.230469 34.554688 11.960938 33.339844 C 12.050781 33.1875 12.222656 33.128906 12.308594 33.269531 C 12.976562 34.367188 13.632812 35.507812 14.289062 36.667969 C 14.390625 36.847656 14.460938 37.171875 14.53125 37.390625 C 13.953125 38.335938 13.390625 39.230469 12.839844 40.15625 C 12.347656 40.972656 11.867188 41.835938 11.378906 42.652344 C 10.464844 44.179688 9.550781 45.707031 8.628906 47.183594 C 8.503906 47.382812 8.285156 47.5 8.171875 47.320312 C 7.101562 45.582031 6.042969 43.769531 4.976562 41.988281 C 4.03125 40.402344 3.078125 38.832031 2.082031 37.175781 C 2.289062 36.839844 2.453125 36.566406 2.605469 36.234375 C 2.585938 36.171875 2.582031 36.199219 2.582031 36.199219 C 3.074219 35.421875 3.566406 34.648438 4.058594 33.867188 C 4.335938 33.425781 4.5625 33.039062 4.914062 33.730469 C 5.511719 34.921875 6.171875 35.859375 6.808594 36.894531 C 6.894531 37.03125 6.984375 37.113281 7.15625 37.328125 C 7.15625 36.207031 7.15625 35.261719 7.15625 34.320312 C 7.15625 32.296875 7.132812 30.273438 7.167969 28.257812 C 7.183594 27.210938 7.042969 26.667969 6.742188 26.195312 C 5.855469 24.785156 4.980469 23.308594 4.027344 21.738281 C 4.003906 22.222656 3.976562 22.597656 3.976562 22.972656 C 3.972656 25.074219 3.960938 27.179688 3.980469 29.285156 C 3.988281 30.042969 3.929688 30.460938 3.679688 30.84375 C 2.992188 31.894531 2.328125 33.082031 1.601562 34.300781 C 1.574219 33.691406 1.53125 33.113281 1.527344 32.53125 C 1.523438 26.679688 1.542969 20.828125 1.511719 14.976562 C 1.507812 13.722656 1.691406 13.039062 2.011719 12.515625 C 3.609375 9.890625 5.210938 7.300781 6.808594 4.683594 C 7.109375 4.183594 7.398438 3.609375 7.777344 2.925781 C 7.777344 3.660156 7.773438 4.210938 7.777344 4.757812 C 7.78125 6.777344 7.792969 8.796875 7.785156 10.8125 C 7.785156 11.070312 7.699219 11.421875 7.621094 11.558594 C 6.871094 12.828125 6.113281 14.054688 5.355469 15.304688 C 5.335938 15.339844 5.328125 15.441406 5.289062 15.628906 C 5.753906 16.417969 6.21875 17.210938 6.6875 17.984375 C 7.132812 18.722656 7.601562 19.359375 8.023438 20.203125 C 8.265625 20.695312 8.445312 20.574219 8.722656 20.234375 C 9.023438 19.824219 9.261719 19.453125 9.496094 19.039062 C 9.917969 18.289062 10.332031 17.511719 10.753906 16.746094 C 10.789062 16.65625 10.828125 16.566406 10.917969 16.480469 C 11.105469 16.234375 11.234375 15.984375 11.363281 15.738281 C 11.28125 15.429688 11.210938 15.054688 11.105469 14.832031 C 10.929688 14.46875 10.730469 14.203125 10.511719 13.757812 C 9.953125 12.78125 9.429688 11.941406 8.90625 11.101562 C 8.90625 8.460938 8.90625 5.820312 8.90625 2.984375 C 10.101562 4.976562 11.253906 6.898438 12.445312 8.949219 C 12.699219 9.460938 12.917969 9.871094 13.140625 10.226562 C 13.667969 11.054688 14.203125 11.859375 14.730469 12.675781 C 14.730469 12.675781 14.746094 12.671875 14.75 12.738281 C 14.859375 12.953125 14.960938 13.097656 15.066406 13.246094 C 15.066406 13.246094 15.09375 13.222656 15.09375 13.335938 C 15.109375 13.734375 15.136719 14.019531 15.140625 14.304688 C 15.140625 20.746094 15.140625 27.1875 15.140625 33.628906 C 15.140625 33.863281 15.101562 34.097656 15.078125 34.332031 C 14.308594 33.007812 13.539062 31.683594 12.714844 30.257812 C 12.714844 27.589844 12.714844 24.753906 12.714844 21.703125 C 12.191406 22.566406 11.738281 23.324219 11.246094 24.171875 C 11.1875 24.316406 11.167969 24.371094 11.144531 24.425781 Z M 11.144531 24.425781 "/>
<path style=" stroke:none;fill-rule:nonzero;fill:rgb(97.647059%,97.647059%,97.647059%);fill-opacity:1;" d="M 21.558594 30.871094 C 21.679688 30.882812 21.800781 30.894531 21.976562 30.9375 C 22.777344 30.402344 23.042969 29.492188 23.042969 27.359375 C 23.046875 23.121094 23.039062 18.882812 23.035156 14.644531 C 23.628906 14.644531 24.222656 14.644531 24.851562 14.644531 C 24.859375 15.003906 24.875 15.324219 24.875 15.640625 C 24.875 19.421875 24.894531 23.207031 24.863281 26.988281 C 24.851562 28.390625 24.785156 29.855469 24.621094 31.167969 C 24.28125 33.902344 23.46875 34.8125 22.542969 35.136719 C 21.710938 35.429688 20.890625 35.296875 20.101562 34.457031 C 19.570312 33.886719 19.210938 32.675781 18.933594 31.085938 C 18.886719 30.90625 18.859375 30.871094 18.832031 30.839844 C 18.835938 30.722656 18.84375 30.605469 18.832031 30.3125 C 18.769531 28.921875 18.699219 27.714844 18.691406 26.503906 C 18.667969 22.71875 18.671875 18.9375 18.664062 15.152344 C 18.746094 14.996094 18.832031 14.714844 18.917969 14.703125 C 19.421875 14.636719 19.929688 14.632812 20.480469 14.710938 C 20.523438 14.929688 20.523438 15.046875 20.519531 15.234375 C 20.523438 15.351562 20.53125 15.394531 20.539062 15.4375 C 20.535156 19.367188 20.53125 23.296875 20.535156 27.222656 C 20.535156 27.589844 20.574219 27.957031 20.585938 28.515625 C 20.753906 30.257812 21 30.800781 21.558594 30.871094 Z M 21.558594 30.871094 "/>
<path style=" stroke:none;fill-rule:nonzero;fill:rgb(97.647059%,97.647059%,97.647059%);fill-opacity:1;" d="M 30.710938 34.953125 C 30.214844 34.949219 29.722656 34.941406 29.191406 34.78125 C 29.148438 31.683594 29.144531 28.734375 29.144531 25.699219 C 29.121094 25.410156 29.089844 25.210938 29.0625 25.011719 C 28.96875 23.726562 28.664062 23.222656 28.246094 23.277344 C 27.875 23.324219 27.488281 24.324219 27.472656 25.449219 C 27.433594 28.507812 27.433594 31.574219 27.371094 34.742188 C 26.828125 34.871094 26.332031 34.894531 25.839844 34.914062 C 25.789062 34.859375 25.738281 34.804688 25.707031 34.601562 C 25.730469 29.941406 25.730469 25.425781 25.742188 20.910156 C 25.742188 20.441406 25.804688 19.972656 25.875 19.527344 C 26.351562 19.527344 26.789062 19.503906 27.226562 19.480469 C 27.285156 20.011719 27.347656 20.542969 27.417969 21.167969 C 27.488281 20.980469 27.554688 20.808594 27.675781 20.542969 C 28.234375 19.039062 28.867188 19.171875 29.496094 19.214844 C 30.210938 19.609375 30.519531 21.195312 30.789062 22.90625 C 30.832031 23.1875 30.855469 23.503906 30.863281 23.910156 C 30.832031 24.101562 30.824219 24.183594 30.808594 24.378906 C 30.804688 27.695312 30.808594 30.898438 30.800781 34.1875 C 30.800781 34.386719 30.808594 34.503906 30.804688 34.691406 C 30.765625 34.828125 30.738281 34.890625 30.710938 34.953125 Z M 30.710938 34.953125 "/>
<path style=" stroke:none;fill-rule:nonzero;fill:rgb(96.470588%,96.470588%,96.470588%);fill-opacity:1;" d="M 43.1875 19.734375 C 43.089844 20.644531 42.992188 21.550781 42.859375 22.59375 C 42.59375 24.664062 42.355469 26.589844 42.136719 28.535156 C 41.984375 29.875 41.855469 31.234375 41.714844 32.585938 C 41.472656 34.277344 41.269531 36.019531 40.980469 37.640625 C 40.699219 39.234375 40.210938 40.121094 39.570312 40.140625 C 39.167969 40.152344 38.667969 40.515625 38.390625 39.960938 C 38.199219 39.582031 38.34375 37.894531 38.28125 36.816406 C 38.226562 35.863281 38.417969 35.78125 38.636719 35.75 C 38.863281 35.71875 39.089844 35.753906 39.371094 35.691406 C 39.472656 35.121094 39.605469 34.535156 39.554688 34.132812 C 39.207031 31.289062 38.824219 28.484375 38.449219 25.667969 C 38.433594 25.503906 38.421875 25.339844 38.398438 25.03125 C 38.347656 24.640625 38.308594 24.398438 38.273438 24.15625 C 38.167969 23.34375 38.0625 22.527344 37.949219 21.546875 C 37.871094 20.96875 37.800781 20.558594 37.730469 20.148438 C 37.726562 20.054688 37.71875 19.960938 37.75 19.777344 C 38.222656 19.679688 38.65625 19.714844 39.085938 19.648438 C 39.363281 19.605469 39.492188 19.882812 39.574219 20.667969 C 39.71875 22.082031 39.914062 23.457031 40.085938 24.847656 C 40.089844 24.941406 40.09375 25.039062 40.089844 25.269531 C 40.140625 25.78125 40.199219 26.15625 40.253906 26.535156 C 40.292969 26.863281 40.332031 27.195312 40.359375 27.710938 C 40.386719 28.363281 40.425781 28.832031 40.460938 29.300781 C 40.507812 29.285156 40.554688 29.265625 40.601562 29.25 C 40.613281 28.742188 40.625 28.230469 40.636719 27.722656 C 40.683594 27.230469 40.726562 26.742188 40.800781 26.140625 C 40.878906 25.578125 40.925781 25.128906 40.972656 24.679688 C 40.976562 24.582031 40.976562 24.488281 41.015625 24.289062 C 41.222656 22.730469 41.25 20.6875 41.597656 19.980469 C 41.96875 19.234375 42.644531 19.761719 43.1875 19.734375 Z M 43.1875 19.734375 "/>
<path style=" stroke:none;fill-rule:nonzero;fill:rgb(97.647059%,97.647059%,97.647059%);fill-opacity:1;" d="M 37.171875 19.480469 C 37.207031 19.65625 37.242188 19.832031 37.265625 20.207031 C 37.230469 21.460938 37.207031 22.519531 37.179688 23.574219 C 36.898438 23.644531 36.617188 23.710938 36.316406 23.988281 C 36.304688 26.0625 36.308594 27.925781 36.304688 29.859375 C 36.339844 30.175781 36.375 30.421875 36.414062 30.667969 C 36.433594 30.714844 36.457031 30.761719 36.519531 30.816406 C 36.5625 30.824219 36.5625 30.828125 36.5625 30.828125 C 36.765625 30.933594 36.96875 31.042969 37.21875 31.210938 C 37.285156 31.304688 37.300781 31.332031 37.316406 31.359375 C 37.304688 32.367188 37.292969 33.371094 37.25 34.542969 C 36.457031 35.164062 35.722656 34.988281 35.007812 34.0625 C 34.910156 33.554688 34.8125 33.042969 34.710938 32.335938 C 34.6875 31.300781 34.664062 30.464844 34.660156 29.625 C 34.65625 27.820312 34.660156 26.011719 34.652344 24.207031 C 34.652344 24.117188 34.558594 24.03125 34.511719 23.957031 C 34.511719 23.96875 34.511719 23.949219 34.511719 23.949219 C 34.347656 23.8125 34.179688 23.679688 33.980469 23.40625 C 33.953125 22 33.957031 20.734375 33.960938 19.472656 C 34.082031 19.480469 34.199219 19.492188 34.382812 19.523438 C 34.617188 19.5625 34.734375 19.492188 34.582031 18.933594 C 34.5625 17.683594 34.527344 16.429688 34.53125 15.179688 C 34.535156 15.003906 34.726562 14.699219 34.835938 14.6875 C 35.296875 14.628906 35.757812 14.660156 36.261719 14.78125 C 36.308594 16.433594 36.308594 17.960938 36.308594 19.609375 C 36.632812 19.5625 36.902344 19.519531 37.171875 19.480469 Z M 37.171875 19.480469 "/>
<path style=" stroke:none;fill-rule:nonzero;fill:rgb(98.431373%,98.431373%,98.431373%);fill-opacity:1;" d="M 33.371094 20.28125 C 33.40625 22.433594 33.457031 24.582031 33.464844 26.730469 C 33.46875 28.777344 33.417969 30.828125 33.402344 32.875 C 33.398438 33.285156 33.445312 33.695312 33.453125 34.191406 C 33.417969 34.285156 33.40625 34.320312 33.398438 34.378906 C 33.394531 34.449219 33.390625 34.519531 33.363281 34.6875 C 33.304688 34.832031 33.269531 34.878906 33.238281 34.921875 C 32.742188 34.921875 32.25 34.921875 31.71875 34.777344 C 31.683594 30.390625 31.6875 26.148438 31.683594 21.910156 C 31.683594 21.164062 31.65625 20.417969 31.640625 19.671875 C 31.640625 19.671875 31.648438 19.636719 31.691406 19.644531 C 32.269531 19.671875 32.800781 19.6875 33.332031 19.808594 C 33.34375 20.035156 33.359375 20.15625 33.371094 20.28125 Z M 33.371094 20.28125 "/>
<path style=" stroke:none;fill-rule:nonzero;fill:rgb(87.058824%,87.058824%,87.058824%);fill-opacity:1;" d="M 45.285156 19.46875 C 45.597656 19.21875 46.316406 19.753906 46.484375 20.339844 C 46.625 20.828125 46.8125 21.25 46.90625 21.800781 C 47.207031 23.609375 46.785156 26.335938 46.09375 27.1875 C 45.460938 27.972656 44.503906 26.960938 44.296875 25.113281 C 44.050781 22.910156 44.210938 20.289062 45.285156 19.46875 M 45.875 26.253906 C 45.941406 26.140625 46.007812 26.03125 46.109375 25.914062 C 46.128906 25.863281 46.148438 25.816406 46.222656 25.757812 C 46.261719 25.609375 46.304688 25.460938 46.382812 25.164062 C 46.597656 24.054688 46.675781 22.933594 46.359375 21.871094 C 46.3125 21.710938 46.179688 21.757812 46.082031 21.726562 C 46.082031 21.726562 46.085938 21.71875 46.167969 21.601562 C 46.152344 21.453125 46.140625 21.304688 46.097656 21.011719 C 46.03125 20.957031 45.964844 20.902344 45.847656 20.722656 C 45.636719 20.753906 45.421875 20.789062 45.148438 20.832031 C 44.738281 21.421875 44.496094 22.492188 44.578125 23.734375 C 44.636719 24.617188 44.710938 25.613281 45.121094 25.761719 C 45.121094 25.761719 45.117188 25.765625 45.125 25.917969 C 45.183594 26.023438 45.242188 26.128906 45.351562 26.300781 C 45.507812 26.285156 45.660156 26.265625 45.875 26.253906 Z M 45.875 26.253906 "/>
<path style=" stroke:none;fill-rule:nonzero;fill:rgb(95.294118%,95.294118%,95.294118%);fill-opacity:1;" d="M 31.878906 13.4375 C 32.410156 13.441406 32.902344 13.441406 33.429688 13.441406 C 33.445312 14.355469 33.441406 15.246094 33.476562 16.128906 C 33.519531 17.257812 33.285156 17.609375 32.972656 17.664062 C 32.613281 17.726562 32.25 17.691406 31.890625 17.667969 C 31.8125 17.664062 31.675781 17.550781 31.671875 17.453125 C 31.625 16.179688 31.59375 14.902344 31.574219 13.621094 C 31.574219 13.570312 31.746094 13.496094 31.878906 13.4375 Z M 31.878906 13.4375 "/>
<path style=" stroke:none;fill-rule:nonzero;fill:rgb(10.588235%,10.588235%,10.588235%);fill-opacity:1;" d="M 15.105469 34.347656 C 15.101562 34.097656 15.140625 33.863281 15.140625 33.628906 C 15.140625 27.1875 15.140625 20.746094 15.140625 14.304688 C 15.136719 14.019531 15.109375 13.734375 15.078125 13.339844 C 15.132812 13.28125 15.199219 13.324219 15.269531 13.585938 C 15.273438 20.515625 15.273438 27.234375 15.273438 33.953125 C 15.226562 34.089844 15.179688 34.230469 15.105469 34.347656 Z M 15.105469 34.347656 "/>
<path style=" stroke:none;fill-rule:nonzero;fill:rgb(40%,40%,40%);fill-opacity:1;" d="M 23 14.667969 C 23.039062 18.882812 23.046875 23.121094 23.042969 27.359375 C 23.042969 29.492188 22.777344 30.402344 22.015625 30.921875 C 22.773438 30.105469 22.929688 28.402344 22.902344 26.222656 C 22.859375 22.824219 22.886719 19.421875 22.894531 16.023438 C 22.894531 15.578125 22.941406 15.132812 23 14.667969 Z M 23 14.667969 "/>
<path style=" stroke:none;fill-rule:nonzero;fill:rgb(23.529412%,23.529412%,23.529412%);fill-opacity:1;" d="M 9.78125 36.933594 C 9.703125 36.957031 9.546875 36.847656 9.546875 36.742188 C 9.554688 33.445312 9.582031 30.148438 9.664062 26.816406 C 9.75 26.796875 9.769531 26.808594 9.792969 26.820312 C 9.785156 30.148438 9.78125 33.476562 9.78125 36.933594 Z M 9.78125 36.933594 "/>
<path style=" stroke:none;fill-rule:nonzero;fill:rgb(39.215686%,39.215686%,39.215686%);fill-opacity:1;" d="M 25.835938 19.503906 C 25.804688 19.972656 25.742188 20.441406 25.742188 20.910156 C 25.730469 25.425781 25.730469 29.941406 25.703125 34.535156 C 25.644531 34.242188 25.574219 33.875 25.574219 33.507812 C 25.566406 29.242188 25.5625 24.980469 25.578125 20.714844 C 25.582031 20.144531 25.703125 19.578125 25.800781 19.074219 C 25.835938 19.261719 25.835938 19.382812 25.835938 19.503906 Z M 25.835938 19.503906 "/>
<path style=" stroke:none;fill-rule:nonzero;fill:rgb(28.235294%,28.235294%,28.235294%);fill-opacity:1;" d="M 15.300781 33.867188 C 15.273438 27.234375 15.273438 20.515625 15.273438 13.667969 C 15.300781 13.851562 15.355469 14.164062 15.355469 14.476562 C 15.359375 20.746094 15.359375 27.019531 15.355469 33.289062 C 15.355469 33.453125 15.335938 33.617188 15.300781 33.867188 Z M 15.300781 33.867188 "/>
<path style=" stroke:none;fill-rule:nonzero;fill:rgb(49.803922%,49.803922%,49.803922%);fill-opacity:1;" d="M 40.101562 24.753906 C 39.914062 23.457031 39.71875 22.082031 39.574219 20.667969 C 39.492188 19.882812 39.363281 19.605469 39.085938 19.648438 C 38.65625 19.714844 38.222656 19.679688 37.75 19.703125 C 37.730469 19.554688 37.738281 19.289062 37.773438 19.246094 C 37.851562 19.15625 37.941406 19.167969 38.027344 19.179688 C 38.527344 19.246094 39.027344 19.324219 39.527344 19.398438 C 39.722656 21.152344 39.921875 22.90625 40.101562 24.753906 Z M 40.101562 24.753906 "/>
<path style=" stroke:none;fill-rule:nonzero;fill:rgb(40%,40%,40%);fill-opacity:1;" d="M 38.4375 25.761719 C 38.824219 28.484375 39.207031 31.289062 39.554688 34.132812 C 39.605469 34.535156 39.472656 35.121094 39.390625 35.621094 C 39.488281 32.925781 38.980469 30.707031 38.710938 28.3125 C 38.617188 27.492188 38.519531 26.675781 38.4375 25.761719 Z M 38.4375 25.761719 "/>
<path style=" stroke:none;fill-rule:nonzero;fill:rgb(49.803922%,49.803922%,49.803922%);fill-opacity:1;" d="M 43.195312 19.625 C 42.644531 19.761719 41.96875 19.234375 41.597656 19.980469 C 41.25 20.6875 41.222656 22.730469 41.019531 24.21875 C 41.121094 22.695312 41.246094 21.136719 41.390625 19.589844 C 41.40625 19.414062 41.515625 19.199219 41.582031 19.195312 C 42.101562 19.179688 42.621094 19.207031 43.136719 19.238281 C 43.160156 19.238281 43.179688 19.417969 43.195312 19.625 Z M 43.195312 19.625 "/>
<path style=" stroke:none;fill-rule:nonzero;fill:rgb(49.803922%,49.803922%,49.803922%);fill-opacity:1;" d="M 41.742188 32.542969 C 41.855469 31.234375 41.984375 29.875 42.136719 28.535156 C 42.355469 26.589844 42.59375 24.664062 42.851562 22.6875 C 42.777344 23.757812 42.699219 24.886719 42.574219 25.96875 C 42.320312 28.160156 42.039062 30.324219 41.742188 32.542969 Z M 41.742188 32.542969 "/>
<path style=" stroke:none;fill-rule:nonzero;fill:rgb(12.941176%,12.941176%,12.941176%);fill-opacity:1;" d="M 18.640625 15.152344 C 18.671875 18.9375 18.667969 22.71875 18.691406 26.503906 C 18.699219 27.714844 18.769531 28.921875 18.8125 30.230469 C 18.738281 29.875 18.660156 29.421875 18.582031 28.75 C 18.582031 24.085938 18.582031 19.628906 18.578125 15.175781 C 18.578125 15.175781 18.621094 15.15625 18.640625 15.152344 Z M 18.640625 15.152344 "/>
<path style=" stroke:none;fill-rule:nonzero;fill:rgb(28.235294%,28.235294%,28.235294%);fill-opacity:1;" d="M 31.636719 19.675781 C 31.65625 20.417969 31.683594 21.164062 31.683594 21.910156 C 31.6875 26.148438 31.683594 30.390625 31.679688 34.75 C 31.648438 34.890625 31.625 34.867188 31.597656 34.625 C 31.59375 31.835938 31.585938 29.226562 31.59375 26.617188 C 31.597656 24.308594 31.617188 22 31.632812 19.6875 C 31.632812 19.6875 31.632812 19.675781 31.636719 19.675781 Z M 31.636719 19.675781 "/>
<path style=" stroke:none;fill-rule:nonzero;fill:rgb(40%,40%,40%);fill-opacity:1;" d="M 31.589844 19.71875 C 31.617188 22 31.597656 24.308594 31.59375 26.617188 C 31.585938 29.226562 31.59375 31.835938 31.589844 34.574219 C 31.5625 34.433594 31.511719 34.167969 31.511719 33.902344 C 31.503906 29.382812 31.507812 24.867188 31.507812 20.347656 C 31.507812 20.148438 31.535156 19.949219 31.589844 19.71875 Z M 31.589844 19.71875 "/>
<path style=" stroke:none;fill-rule:nonzero;fill:rgb(43.529412%,43.529412%,43.529412%);fill-opacity:1;" d="M 35.011719 34.15625 C 35.722656 34.988281 36.457031 35.164062 37.253906 34.65625 C 37.273438 34.824219 37.257812 35.222656 37.242188 35.222656 C 36.515625 35.332031 35.769531 35.808594 35.101562 34.515625 C 35.066406 34.449219 35.039062 34.335938 35.011719 34.15625 Z M 35.011719 34.15625 "/>
<path style=" stroke:none;fill-rule:nonzero;fill:rgb(40%,40%,40%);fill-opacity:1;" d="M 14.734375 12.585938 C 14.203125 11.859375 13.667969 11.054688 13.140625 10.226562 C 12.917969 9.871094 12.699219 9.460938 12.46875 8.996094 C 12.511719 8.902344 12.585938 8.816406 12.625 8.886719 C 13.332031 10.078125 14.03125 11.289062 14.734375 12.585938 Z M 14.734375 12.585938 "/>
<path style=" stroke:none;fill-rule:nonzero;fill:rgb(49.803922%,49.803922%,49.803922%);fill-opacity:1;" d="M 18.550781 15.238281 C 18.582031 19.628906 18.582031 24.085938 18.585938 28.652344 C 18.558594 28.601562 18.507812 28.429688 18.507812 28.261719 C 18.507812 23.9375 18.511719 19.617188 18.550781 15.238281 Z M 18.550781 15.238281 "/>
<path style=" stroke:none;fill-rule:nonzero;fill:rgb(31.764706%,31.764706%,31.764706%);fill-opacity:1;" d="M 37.167969 19.378906 C 36.902344 19.519531 36.632812 19.5625 36.308594 19.609375 C 36.308594 17.960938 36.308594 16.433594 36.304688 14.785156 C 36.359375 15.03125 36.46875 15.378906 36.476562 15.75 C 36.503906 16.742188 36.484375 17.742188 36.484375 18.730469 C 36.730469 18.925781 36.945312 19.097656 37.167969 19.378906 Z M 37.167969 19.378906 "/>
<path style=" stroke:none;fill-rule:nonzero;fill:rgb(49.803922%,49.803922%,49.803922%);fill-opacity:1;" d="M 10.71875 16.722656 C 10.332031 17.511719 9.917969 18.289062 9.496094 19.039062 C 9.261719 19.453125 9.023438 19.824219 8.753906 20.203125 C 8.753906 19.992188 8.765625 19.679688 8.820312 19.59375 C 9.441406 18.609375 10.066406 17.65625 10.71875 16.722656 Z M 10.71875 16.722656 "/>
<path style=" stroke:none;fill-rule:nonzero;fill:rgb(49.803922%,49.803922%,49.803922%);fill-opacity:1;" d="M 30.816406 34.617188 C 30.808594 34.503906 30.800781 34.386719 30.828125 34.113281 C 30.871094 30.867188 30.882812 27.777344 30.886719 24.6875 C 30.886719 24.546875 30.839844 24.40625 30.8125 24.261719 C 30.824219 24.183594 30.832031 24.101562 30.867188 24.011719 C 30.917969 24.125 30.972656 24.253906 30.972656 24.378906 C 30.96875 27.742188 30.960938 31.101562 30.902344 34.539062 C 30.855469 34.613281 30.816406 34.617188 30.816406 34.617188 Z M 30.816406 34.617188 "/>
<path style=" stroke:none;fill-rule:nonzero;fill:rgb(39.215686%,39.215686%,39.215686%);fill-opacity:1;" d="M 29.484375 19.113281 C 28.867188 19.171875 28.234375 19.039062 27.695312 20.457031 C 27.632812 19.375 27.976562 19.253906 28.179688 19.15625 C 28.601562 18.949219 29.042969 19.042969 29.484375 19.113281 Z M 29.484375 19.113281 "/>
<path style=" stroke:none;fill-rule:nonzero;fill:rgb(40%,40%,40%);fill-opacity:1;" d="M 36.3125 29.792969 C 36.308594 27.925781 36.304688 26.0625 36.3125 24.082031 C 36.378906 24.300781 36.46875 24.632812 36.472656 24.96875 C 36.488281 26.503906 36.476562 28.039062 36.433594 29.683594 C 36.363281 29.792969 36.335938 29.792969 36.3125 29.792969 Z M 36.3125 29.792969 "/>
<path style=" stroke:none;fill-rule:nonzero;fill:rgb(49.803922%,49.803922%,49.803922%);fill-opacity:1;" d="M 29.03125 25.070312 C 29.089844 25.210938 29.121094 25.410156 29.121094 25.773438 C 29.082031 27.492188 29.078125 29.046875 29.058594 30.597656 C 29.046875 31.757812 29.015625 32.917969 28.992188 34.078125 C 28.992188 31.09375 28.996094 28.113281 29.03125 25.070312 Z M 29.03125 25.070312 "/>
<path style=" stroke:none;fill-rule:nonzero;fill:rgb(49.803922%,49.803922%,49.803922%);fill-opacity:1;" d="M 8.90625 11.191406 C 9.429688 11.941406 9.953125 12.78125 10.488281 13.699219 C 9.96875 12.945312 9.4375 12.117188 8.90625 11.191406 Z M 8.90625 11.191406 "/>
<path style=" stroke:none;fill-rule:nonzero;fill:rgb(52.54902%,52.54902%,52.54902%);fill-opacity:1;" d="M 33.335938 19.707031 C 32.800781 19.6875 32.269531 19.671875 31.691406 19.621094 C 31.683594 19.472656 31.722656 19.246094 31.753906 19.25 C 32.304688 19.316406 32.855469 19.410156 33.390625 19.605469 C 33.375 19.707031 33.335938 19.707031 33.335938 19.707031 Z M 33.335938 19.707031 "/>
<path style=" stroke:none;fill-rule:nonzero;fill:rgb(39.215686%,39.215686%,39.215686%);fill-opacity:1;" d="M 28.988281 34.160156 C 29.015625 32.917969 29.046875 31.757812 29.058594 30.597656 C 29.078125 29.046875 29.082031 27.492188 29.113281 25.863281 C 29.144531 28.734375 29.148438 31.683594 29.148438 34.75 C 29.09375 34.660156 29.039062 34.453125 28.988281 34.160156 Z M 28.988281 34.160156 "/>
<path style=" stroke:none;fill-rule:nonzero;fill:rgb(10.588235%,10.588235%,10.588235%);fill-opacity:1;" d="M 34.511719 23.945312 C 34.558594 24.03125 34.652344 24.117188 34.652344 24.207031 C 34.660156 26.011719 34.65625 27.820312 34.660156 29.625 C 34.664062 30.464844 34.6875 31.300781 34.699219 32.242188 C 34.652344 32.136719 34.605469 31.925781 34.554688 31.507812 C 34.539062 28.847656 34.523438 26.398438 34.511719 23.945312 Z M 34.511719 23.945312 "/>
<path style=" stroke:none;fill-rule:nonzero;fill:rgb(39.215686%,39.215686%,39.215686%);fill-opacity:1;" d="M 25.855469 35.011719 C 26.332031 34.894531 26.828125 34.871094 27.363281 34.859375 C 27.300781 35.015625 27.195312 35.285156 27.09375 35.28125 C 26.6875 35.269531 26.28125 35.175781 25.855469 35.011719 Z M 25.855469 35.011719 "/>
<path style=" stroke:none;fill-rule:nonzero;fill:rgb(23.529412%,23.529412%,23.529412%);fill-opacity:1;" d="M 25.875 19.527344 C 25.835938 19.382812 25.835938 19.261719 25.832031 19.046875 C 26.183594 18.949219 26.539062 18.917969 26.890625 18.953125 C 27 18.964844 27.105469 19.160156 27.21875 19.375 C 26.789062 19.503906 26.351562 19.527344 25.875 19.527344 Z M 25.875 19.527344 "/>
<path style=" stroke:none;fill-rule:nonzero;fill:rgb(49.803922%,49.803922%,49.803922%);fill-opacity:1;" d="M 34.511719 23.957031 C 34.523438 26.398438 34.539062 28.847656 34.554688 31.417969 C 34.527344 31.03125 34.480469 30.53125 34.476562 30.03125 C 34.472656 28.082031 34.480469 26.128906 34.496094 24.0625 C 34.511719 23.949219 34.511719 23.96875 34.511719 23.957031 Z M 34.511719 23.957031 "/>
<path style=" stroke:none;fill-rule:nonzero;fill:rgb(20%,20%,20%);fill-opacity:1;" d="M 33.925781 19.492188 C 33.957031 20.734375 33.953125 22 33.945312 23.382812 C 33.644531 22.203125 33.730469 20.863281 33.925781 19.492188 Z M 33.925781 19.492188 "/>
<path style=" stroke:none;fill-rule:nonzero;fill:rgb(40%,40%,40%);fill-opacity:1;" d="M 21.539062 30.800781 C 21 30.800781 20.753906 30.257812 20.589844 28.617188 C 20.910156 29.261719 21.214844 29.996094 21.539062 30.800781 Z M 21.539062 30.800781 "/>
<path style=" stroke:none;fill-rule:nonzero;fill:rgb(39.215686%,39.215686%,39.215686%);fill-opacity:1;" d="M 37.199219 23.648438 C 37.207031 22.519531 37.230469 21.460938 37.269531 20.292969 C 37.492188 21.222656 37.453125 23.117188 37.199219 23.648438 Z M 37.199219 23.648438 "/>
<path style=" stroke:none;fill-rule:nonzero;fill:rgb(49.803922%,49.803922%,49.803922%);fill-opacity:1;" d="M 40.609375 27.726562 C 40.625 28.230469 40.613281 28.742188 40.601562 29.25 C 40.554688 29.265625 40.507812 29.285156 40.460938 29.300781 C 40.425781 28.832031 40.386719 28.363281 40.359375 27.800781 C 40.441406 27.714844 40.511719 27.722656 40.609375 27.726562 Z M 40.609375 27.726562 "/>
<path style=" stroke:none;fill-rule:nonzero;fill:rgb(31.764706%,31.764706%,31.764706%);fill-opacity:1;" d="M 9.820312 26.800781 C 9.769531 26.808594 9.75 26.796875 9.691406 26.761719 C 9.855469 26.410156 10.046875 26.082031 10.273438 25.773438 C 10.152344 26.121094 10.003906 26.453125 9.820312 26.800781 Z M 9.820312 26.800781 "/>
<path style=" stroke:none;fill-rule:nonzero;fill:rgb(49.803922%,49.803922%,49.803922%);fill-opacity:1;" d="M 40.28125 26.554688 C 40.199219 26.15625 40.140625 25.78125 40.097656 25.335938 C 40.175781 25.707031 40.242188 26.140625 40.28125 26.554688 Z M 40.28125 26.554688 "/>
<path style=" stroke:none;fill-rule:nonzero;fill:rgb(31.764706%,31.764706%,31.764706%);fill-opacity:1;" d="M 10.335938 25.804688 C 10.441406 25.535156 10.574219 25.285156 10.734375 25.105469 C 10.628906 25.390625 10.496094 25.605469 10.335938 25.804688 Z M 10.335938 25.804688 "/>
<path style=" stroke:none;fill-rule:nonzero;fill:rgb(49.803922%,49.803922%,49.803922%);fill-opacity:1;" d="M 40.945312 24.707031 C 40.925781 25.128906 40.878906 25.578125 40.804688 26.042969 C 40.820312 25.617188 40.867188 25.175781 40.945312 24.707031 Z M 40.945312 24.707031 "/>
<path style=" stroke:none;fill-rule:nonzero;fill:rgb(49.803922%,49.803922%,49.803922%);fill-opacity:1;" d="M 11.335938 15.738281 C 11.234375 15.984375 11.105469 16.234375 10.941406 16.457031 C 11.042969 16.199219 11.175781 15.96875 11.335938 15.738281 Z M 11.335938 15.738281 "/>
<path style=" stroke:none;fill-rule:nonzero;fill:rgb(49.803922%,49.803922%,49.803922%);fill-opacity:1;" d="M 37.730469 20.238281 C 37.800781 20.558594 37.871094 20.96875 37.929688 21.464844 C 37.855469 21.144531 37.789062 20.734375 37.730469 20.238281 Z M 37.730469 20.238281 "/>
<path style=" stroke:none;fill-rule:nonzero;fill:rgb(20%,20%,20%);fill-opacity:1;" d="M 34.554688 18.945312 C 34.734375 19.492188 34.617188 19.5625 34.417969 19.5 C 34.433594 19.296875 34.476562 19.128906 34.554688 18.945312 Z M 34.554688 18.945312 "/>
<path style=" stroke:none;fill-rule:nonzero;fill:rgb(39.215686%,39.215686%,39.215686%);fill-opacity:1;" d="M 36.304688 29.859375 C 36.335938 29.792969 36.363281 29.792969 36.425781 29.800781 C 36.457031 30.027344 36.449219 30.246094 36.429688 30.566406 C 36.375 30.421875 36.339844 30.175781 36.304688 29.859375 Z M 36.304688 29.859375 "/>
<path style=" stroke:none;fill-rule:nonzero;fill:rgb(10.588235%,10.588235%,10.588235%);fill-opacity:1;" d="M 15.070312 13.152344 C 14.960938 13.097656 14.859375 12.953125 14.75 12.71875 C 14.855469 12.777344 14.964844 12.914062 15.070312 13.152344 Z M 15.070312 13.152344 "/>
<path style=" stroke:none;fill-rule:nonzero;fill:rgb(40%,40%,40%);fill-opacity:1;" d="M 38.257812 24.234375 C 38.308594 24.398438 38.347656 24.640625 38.378906 24.964844 C 38.328125 24.800781 38.285156 24.554688 38.257812 24.234375 Z M 38.257812 24.234375 "/>
<path style=" stroke:none;fill-rule:nonzero;fill:rgb(40%,40%,40%);fill-opacity:1;" d="M 20.523438 15.160156 C 20.523438 15.046875 20.523438 14.929688 20.519531 14.726562 C 20.570312 14.816406 20.621094 14.992188 20.628906 15.1875 C 20.566406 15.195312 20.542969 15.179688 20.523438 15.160156 Z M 20.523438 15.160156 "/>
<path style=" stroke:none;fill-rule:nonzero;fill:rgb(49.803922%,49.803922%,49.803922%);fill-opacity:1;" d="M 33.332031 19.808594 C 33.335938 19.707031 33.375 19.707031 33.394531 19.707031 C 33.417969 19.933594 33.421875 20.167969 33.398438 20.339844 C 33.359375 20.15625 33.34375 20.035156 33.332031 19.808594 Z M 33.332031 19.808594 "/>
<path style=" stroke:none;fill-rule:nonzero;fill:rgb(35.686275%,35.686275%,35.686275%);fill-opacity:1;" d="M 30.804688 34.691406 C 30.816406 34.617188 30.855469 34.613281 30.875 34.613281 C 30.847656 34.777344 30.792969 34.9375 30.726562 35.027344 C 30.738281 34.890625 30.765625 34.828125 30.804688 34.691406 Z M 30.804688 34.691406 "/>
<path style=" stroke:none;fill-rule:nonzero;fill:rgb(31.764706%,31.764706%,31.764706%);fill-opacity:1;" d="M 10.925781 24.902344 C 10.925781 24.738281 10.929688 24.632812 10.96875 24.53125 C 10.980469 24.679688 10.960938 24.820312 10.925781 24.902344 Z M 10.925781 24.902344 "/>
<path style=" stroke:none;fill-rule:nonzero;fill:rgb(52.54902%,52.54902%,52.54902%);fill-opacity:1;" d="M 33.25 35 C 33.269531 34.878906 33.304688 34.832031 33.363281 34.796875 C 33.347656 34.890625 33.308594 34.984375 33.25 35 Z M 33.25 35 "/>
<path style=" stroke:none;fill-rule:nonzero;fill:rgb(12.941176%,12.941176%,12.941176%);fill-opacity:1;" d="M 18.8125 30.867188 C 18.859375 30.871094 18.886719 30.90625 18.914062 31.011719 C 18.875 31.023438 18.832031 30.957031 18.8125 30.867188 Z M 18.8125 30.867188 "/>
<path style=" stroke:none;fill-rule:nonzero;fill:rgb(97.647059%,97.647059%,97.647059%);fill-opacity:1;" d="M 2.585938 36.15625 C 2.582031 36.144531 2.597656 36.203125 2.597656 36.203125 C 2.597656 36.203125 2.585938 36.167969 2.585938 36.183594 C 2.582031 36.199219 2.585938 36.171875 2.585938 36.15625 Z M 2.585938 36.15625 "/>
<path style=" stroke:none;fill-rule:nonzero;fill:rgb(49.803922%,49.803922%,49.803922%);fill-opacity:1;" d="M 33.414062 34.460938 C 33.40625 34.320312 33.417969 34.285156 33.453125 34.285156 C 33.457031 34.382812 33.441406 34.464844 33.414062 34.460938 Z M 33.414062 34.460938 "/>
<path style=" stroke:none;fill-rule:nonzero;fill:rgb(43.529412%,43.529412%,43.529412%);fill-opacity:1;" d="M 37.332031 31.308594 C 37.300781 31.332031 37.285156 31.304688 37.261719 31.199219 C 37.285156 31.167969 37.316406 31.214844 37.332031 31.308594 Z M 37.332031 31.308594 "/>
<path style=" stroke:none;fill-rule:nonzero;fill:rgb(39.215686%,39.215686%,39.215686%);fill-opacity:1;" d="M 36.582031 30.808594 C 36.5625 30.828125 36.5625 30.824219 36.558594 30.832031 C 36.558594 30.839844 36.566406 30.71875 36.566406 30.71875 C 36.566406 30.71875 36.601562 30.789062 36.582031 30.808594 Z M 36.582031 30.808594 "/>
<path style=" stroke:none;fill-rule:nonzero;fill:rgb(35.686275%,35.686275%,35.686275%);fill-opacity:1;" d="M 20.519531 15.234375 C 20.542969 15.179688 20.566406 15.195312 20.617188 15.257812 C 20.625 15.363281 20.605469 15.421875 20.5625 15.460938 C 20.53125 15.394531 20.523438 15.351562 20.519531 15.234375 Z M 20.519531 15.234375 "/>
<path style=" stroke:none;fill-rule:nonzero;fill:rgb(31.764706%,31.764706%,31.764706%);fill-opacity:1;" d="M 11.171875 24.464844 C 11.167969 24.371094 11.1875 24.316406 11.230469 24.246094 C 11.234375 24.320312 11.21875 24.410156 11.171875 24.464844 Z M 11.171875 24.464844 "/>
<path style=" stroke:none;fill-rule:nonzero;fill:rgb(35.686275%,35.686275%,35.686275%);fill-opacity:1;" d="M 30.808594 24.378906 C 30.839844 24.40625 30.886719 24.546875 30.886719 24.6875 C 30.882812 27.777344 30.871094 30.867188 30.835938 34.027344 C 30.808594 30.898438 30.804688 27.695312 30.808594 24.378906 Z M 30.808594 24.378906 "/>
<path style=" stroke:none;fill-rule:nonzero;fill:rgb(78.431373%,78.431373%,78.431373%);fill-opacity:1;" d="M 46.34375 25.3125 C 46.304688 25.460938 46.261719 25.609375 46.175781 25.691406 C 45.914062 25.089844 45.695312 24.5625 45.433594 23.9375 C 45.410156 24.503906 45.394531 24.894531 45.378906 25.277344 C 45.378906 25.269531 45.382812 25.257812 45.355469 25.265625 C 45.292969 25.355469 45.257812 25.4375 45.210938 25.585938 C 45.171875 25.6875 45.144531 25.726562 45.117188 25.765625 C 45.117188 25.765625 45.121094 25.761719 45.113281 25.652344 C 45.097656 25.003906 45.070312 24.453125 45.085938 23.914062 C 45.113281 23.089844 45.167969 22.269531 45.242188 21.480469 C 45.542969 21.582031 45.816406 21.648438 46.085938 21.71875 C 46.085938 21.71875 46.082031 21.726562 46.074219 21.8125 C 46.0625 22.445312 46.011719 23.027344 46.058594 23.535156 C 46.113281 24.160156 46.246094 24.722656 46.34375 25.3125 Z M 46.34375 25.3125 "/>
<path style=" stroke:none;fill-rule:nonzero;fill:rgb(23.529412%,23.529412%,23.529412%);fill-opacity:1;" d="M 45.207031 21.445312 C 45.167969 22.269531 45.113281 23.089844 45.085938 23.914062 C 45.070312 24.453125 45.097656 25.003906 45.113281 25.664062 C 44.710938 25.613281 44.636719 24.617188 44.578125 23.734375 C 44.496094 22.492188 44.738281 21.421875 45.179688 20.90625 C 45.210938 21.132812 45.210938 21.289062 45.207031 21.445312 Z M 45.207031 21.445312 "/>
<path style=" stroke:none;fill-rule:nonzero;fill:rgb(15.294118%,15.294118%,15.294118%);fill-opacity:1;" d="M 46.363281 25.238281 C 46.246094 24.722656 46.113281 24.160156 46.058594 23.535156 C 46.011719 23.027344 46.0625 22.445312 46.074219 21.804688 C 46.179688 21.757812 46.3125 21.710938 46.359375 21.871094 C 46.675781 22.933594 46.597656 24.054688 46.363281 25.238281 Z M 46.363281 25.238281 "/>
<path style=" stroke:none;fill-rule:nonzero;fill:rgb(20%,20%,20%);fill-opacity:1;" d="M 45.378906 25.285156 C 45.394531 24.894531 45.410156 24.503906 45.433594 23.9375 C 45.695312 24.5625 45.914062 25.089844 46.148438 25.695312 C 46.148438 25.816406 46.128906 25.863281 46.0625 25.867188 C 45.75 25.71875 45.488281 25.621094 45.222656 25.523438 C 45.257812 25.4375 45.292969 25.355469 45.359375 25.316406 C 45.40625 25.339844 45.421875 25.3125 45.433594 25.289062 C 45.414062 25.289062 45.394531 25.285156 45.378906 25.285156 Z M 45.378906 25.285156 "/>
<path style=" stroke:none;fill-rule:nonzero;fill:rgb(15.294118%,15.294118%,15.294118%);fill-opacity:1;" d="M 45.242188 21.480469 C 45.210938 21.289062 45.210938 21.132812 45.210938 20.898438 C 45.421875 20.789062 45.636719 20.753906 45.882812 20.859375 C 45.988281 21.050781 46.058594 21.101562 46.125 21.152344 C 46.140625 21.304688 46.152344 21.453125 46.125 21.660156 C 45.816406 21.648438 45.542969 21.582031 45.242188 21.480469 Z M 45.242188 21.480469 "/>
<path style=" stroke:none;fill-rule:nonzero;fill:rgb(23.529412%,23.529412%,23.529412%);fill-opacity:1;" d="M 45.210938 25.585938 C 45.488281 25.621094 45.75 25.71875 46.042969 25.867188 C 46.007812 26.03125 45.941406 26.140625 45.824219 26.1875 C 45.613281 26.15625 45.457031 26.195312 45.296875 26.234375 C 45.242188 26.128906 45.183594 26.023438 45.121094 25.839844 C 45.144531 25.726562 45.171875 25.6875 45.210938 25.585938 Z M 45.210938 25.585938 "/>
<path style=" stroke:none;fill-rule:nonzero;fill:rgb(20%,20%,20%);fill-opacity:1;" d="M 45.324219 26.265625 C 45.457031 26.195312 45.613281 26.15625 45.792969 26.183594 C 45.660156 26.265625 45.507812 26.285156 45.324219 26.265625 Z M 45.324219 26.265625 "/>
<path style=" stroke:none;fill-rule:nonzero;fill:rgb(23.529412%,23.529412%,23.529412%);fill-opacity:1;" d="M 46.113281 21.082031 C 46.058594 21.101562 45.988281 21.050781 45.910156 20.921875 C 45.964844 20.902344 46.03125 20.957031 46.113281 21.082031 Z M 46.113281 21.082031 "/>
<path style=" stroke:none;fill-rule:nonzero;fill:rgb(78.431373%,78.431373%,78.431373%);fill-opacity:1;" d="M 45.378906 25.277344 C 45.394531 25.285156 45.414062 25.289062 45.433594 25.289062 C 45.421875 25.3125 45.40625 25.339844 45.390625 25.308594 C 45.382812 25.257812 45.378906 25.269531 45.378906 25.277344 Z M 45.378906 25.277344 "/>
</g>
</svg>
